# xmcd
#
# Track frame offsets: 
#        150
#        14168
#        28812
#        44691
#        60772
#        76953
#        93937
#        111629
#        129813
#        148454
#        167350
#        186307
#        205283
#        224347
#        244178
#        264271
#        284697
#
# Disc length: 4129 seconds
#
# Revision: 0
# Processed by: cddbd v1.5.2PL0 Copyright (c) Steve Scherf et al.
# Submitted via: ExactAudioCopy v0.90b4
#
DISCID=02101f11
DTITLE=·ÆË¿¡¤Ï£¶û - ºôÎü
DYEAR=2001
DGENRE=
TTITLE0=the way you love me
TTITLE1=this kiss
TTITLE2=i got my baby
TTITLE3=bringing out had elvis
TTITLE4=if my heart had wings
TTITLE5=it will be me
TTITLE6=love is a sweet thing
TTITLE7=if i'm not in love
TTITLE8=breathe
TTITLE9=let't make love
TTITLE10=breathe(hex hector radio edit#1)
TTITLE11=there will come a day
TTITLE12=that's how love moves
TTITLE13=let me let go
TTITLE14=just to here you say that you love me
TTITLE15=if i should fall behind
TTITLE16=what's in it for me
EXTD=
EXTT0=
EXTT1=
EXTT2=
EXTT3=
EXTT4=
EXTT5=
EXTT6=
EXTT7=
EXTT8=
EXTT9=
EXTT10=
EXTT11=
EXTT12=
EXTT13=
EXTT14=
EXTT15=
EXTT16=
PLAYORDER=
